<svg width="903" height="258" viewBox="0 0 903 258" fill="none" xmlns="http://www.w3.org/2000/svg">
<path d="M330.723 106.569C342.546 106.569 352.147 116.185 352.147 127.993C352.147 139.801 342.531 149.416 330.723 149.416C318.915 149.416 309.3 139.801 309.3 127.993C309.3 116.185 318.915 106.569 330.723 106.569ZM330.723 93.7176C311.794 93.7176 296.433 109.063 296.433 128.008C296.433 146.952 311.779 162.298 330.723 162.298C349.667 162.298 365.013 146.952 365.013 128.008C365.013 109.063 349.667 93.7176 330.723 93.7176ZM752.318 106.569C764.141 106.569 773.742 116.185 773.742 127.993C773.742 139.801 764.126 149.416 752.318 149.416C740.51 149.416 730.895 139.801 730.895 127.993C730.895 116.185 740.51 106.569 752.318 106.569ZM752.318 93.7176C733.389 93.7176 718.028 109.063 718.028 128.008C718.028 146.952 733.374 162.298 752.318 162.298C771.263 162.298 786.608 146.952 786.608 128.008C786.608 109.063 771.263 93.7176 752.318 93.7176ZM276.083 138.289C272.439 144.926 265.379 149.431 257.29 149.431C245.467 149.431 235.866 139.816 235.866 128.008C235.866 116.2 245.482 106.584 257.29 106.584C265.379 106.584 272.439 111.089 276.083 117.727H290.008C285.638 103.817 272.651 93.7328 257.29 93.7328C238.361 93.7328 223 109.079 223 128.023C223 146.967 238.346 162.313 257.29 162.313C272.636 162.313 285.638 152.228 290.008 138.319L276.083 138.289ZM500.011 72.2788V101.232C494.145 96.5298 486.692 93.7025 478.588 93.7025C459.659 93.7025 444.298 109.048 444.298 127.993C444.298 146.937 459.644 162.283 478.588 162.283C486.692 162.283 494.145 159.455 500.011 154.753V162.283H512.863V72.2788H500.011ZM478.588 150.505C466.749 150.505 457.164 140.436 457.164 128.008C457.164 115.58 466.765 105.511 478.588 105.511C490.411 105.511 500.011 115.58 500.011 128.008C500.011 140.436 490.411 150.505 478.588 150.505ZM435.725 121.658C435.725 103.878 421.952 93.7176 407.861 93.7176C400.513 93.7176 390.988 97.4672 386.437 102.305V93.7176H373.586V162.283H386.437V117.666C390.504 111.256 398.396 106.569 406.787 106.569C415.178 106.569 422.859 112.692 422.859 123.714L423.282 162.283H435.71L435.725 121.658ZM524.444 134.343C524.444 152.123 538.217 162.283 552.308 162.283C559.656 162.283 569.181 158.533 573.732 153.695V162.283H586.583V93.7176H573.732V138.334C569.665 144.744 561.773 149.431 553.382 149.431C544.991 149.431 537.31 143.308 537.31 132.286L536.887 93.7176H524.459L524.444 134.343ZM660.243 93.7176H643.627L620.813 121.582H611V72.2788H598.149V162.283H611V134.418H620.813L643.627 162.283H660.243L632.167 127.993L660.243 93.7176ZM711.678 106.569V93.7176H690.255V76.5726H677.403V93.7176H664.552V106.569H677.403V149.492C677.449 156.552 683.179 162.283 690.255 162.283H711.618V149.431H690.255V106.569H711.678ZM833.689 93.7176H808.047C800.971 93.7176 795.226 99.4326 795.196 106.508V162.298H808.047V106.569H833.689V93.7176Z" fill="white"/>
<path d="M90.212 68L120.435 85.2962H137.459L167.788 68L173.851 74.0627L148.662 99.2511C146.999 100.914 143.703 102.275 141.345 102.275H116.67C114.312 102.275 111.016 100.914 109.353 99.2511L84.1493 74.0627L90.212 68ZM173.851 181.937L148.662 156.749C146.999 155.086 143.703 153.725 141.345 153.725H116.67C114.312 153.725 111.016 155.086 109.353 156.749L84.1644 181.937L90.2272 188L120.556 170.704H137.58L167.803 188L173.851 181.937ZM157.749 108.338C156.086 110.001 154.725 113.297 154.725 115.655V140.33C154.725 142.688 156.086 145.984 157.749 147.647L182.937 172.836L189 166.773L171.704 136.444V119.42L189 89.1969L182.937 83.1342L157.749 108.338ZM75.0627 172.851L100.251 147.662C101.914 145.999 103.275 142.703 103.275 140.345V115.67C103.275 113.312 101.914 110.016 100.251 108.353L75.0627 83.1493L69 89.212L86.2962 119.541V136.565L69 166.788L75.0627 172.851Z" fill="#BCFE68"/>
</svg>
